<?xml version="1.0" encoding="UTF-8" standalone="no"?>
<svg
   xmlns:dc="http://purl.org/dc/elements/1.1/"
   xmlns:cc="http://creativecommons.org/ns#"
   xmlns:rdf="http://www.w3.org/1999/02/22-rdf-syntax-ns#"
   xmlns:svg="http://www.w3.org/2000/svg"
   xmlns="http://www.w3.org/2000/svg"
   version="1.1"
   viewBox="0 0 72 72"
   id="emoji">
  <metadata
     id="metadata275">
    <rdf:RDF>
      <cc:Work
         rdf:about="">
        <dc:format>image/svg+xml</dc:format>
        <dc:type
           rdf:resource="http://purl.org/dc/dcmitype/StillImage" />
        <dc:title></dc:title>
      </cc:Work>
    </rdf:RDF>
  </metadata>
  <defs
     id="defs273" />
  <g
     id="color">
    <rect
       fill="#3F3F3F"
       stroke="none"
       stroke-width="2"
       stroke-linecap="round"
       stroke-linejoin="round"
       id="rect241"
       stroke-miterlimit="10"
       height="50"
       width="50"
       y="10.9583"
       x="11" />
    <path
       fill="#D0CFCE"
       stroke="none"
       stroke-width="2"
       stroke-linecap="round"
       stroke-linejoin="round"
       id="path243"
       d="M52.5498,47.1172c-3.5867,5.309-9.6606,8.7994-16.5498,8.7994c-11.0227,0-19.9583-8.9356-19.9583-19.9583S24.9773,16,36,16 c6.8569,0,12.9061,3.4578,16.4992,8.7249"
       stroke-miterlimit="10" />
    <circle
       fill="#D0CFCE"
       stroke="none"
       id="circle245"
       r="19.9583"
       cy="35.887"
       cx="35.9271" />
    <path
       fill="#D0CFCE"
       stroke="none"
       id="path247"
       d="M17.5128,26.3859c3.078-5.9375,8.9544-10.2898,16.0975-11.1214 c11.4289-1.3305,21.7725,6.8558,23.103,18.2847c1.3305,11.4289-6.8558,21.7725-18.2847,23.103 c-7.1096,0.8277-13.7992-2.0274-18.1604-7.0549" />
    <path
       fill="#D0CFCE"
       stroke="none"
       stroke-width="2"
       stroke-linecap="round"
       stroke-linejoin="round"
       id="path249"
       d="M52.5498,47.0458c-3.5867,5.309-9.6606,8.7994-16.5498,8.7994c-11.0227,0-19.9583-8.9356-19.9583-19.9583 S24.9773,15.9286,36,15.9286c6.8569,0,12.9061,3.4578,16.4992,8.7249"
       stroke-miterlimit="10" />
    <circle
       fill="#3F3F3F"
       stroke="none"
       stroke-width="2"
       stroke-linecap="round"
       stroke-linejoin="round"
       id="circle251"
       stroke-miterlimit="10"
       r="5"
       cy="35.9583"
       cx="36" />
    <polyline
       fill="#D0CFCE"
       stroke="none"
       stroke-width="2"
       stroke-linecap="round"
       stroke-linejoin="round"
       id="polyline253"
       points="44,36.5005 44,41.9751 61,44.4334 61,36.5 61,36.4334 61,28.5 44,30.9583 44,36.4329"
       stroke-miterlimit="10" />
  </g>
  <g
     id="hair" />
  <g
     id="skin" />
  <g
     id="skin-shadow" />
  <g
     id="line">
    <rect
       fill="none"
       stroke="#000000"
       stroke-width="2"
       stroke-linecap="round"
       stroke-linejoin="round"
       id="rect259"
       stroke-miterlimit="10"
       height="50"
       width="50"
       y="10.9583"
       x="11" />
    <path
       fill="none"
       stroke="#000000"
       stroke-width="2"
       stroke-linecap="round"
       stroke-linejoin="round"
       id="path261"
       d="M52.5498,47.1172c-3.5867,5.309-9.6606,8.7994-16.5498,8.7994c-11.0227,0-19.9583-8.9356-19.9583-19.9583S24.9773,16,36,16 c6.8569,0,12.9061,3.4578,16.4992,8.7249"
       stroke-miterlimit="10" />
    <path
       fill="none"
       stroke="#000000"
       stroke-width="2"
       stroke-linecap="round"
       stroke-linejoin="round"
       id="path263"
       d="M52.5498,47.0458c-3.5867,5.309-9.6606,8.7994-16.5498,8.7994c-11.0227,0-19.9583-8.9356-19.9583-19.9583 S24.9773,15.9286,36,15.9286c6.8569,0,12.9061,3.4578,16.4992,8.7249"
       stroke-miterlimit="10" />
    <circle
       fill="none"
       stroke="#000000"
       stroke-width="2"
       stroke-linecap="round"
       stroke-linejoin="round"
       id="circle265"
       stroke-miterlimit="10"
       r="5"
       cy="35.9583"
       cx="36" />
    <polyline
       fill="none"
       stroke="#000000"
       stroke-width="2"
       stroke-linecap="round"
       stroke-linejoin="round"
       id="polyline267"
       points="44,36.5005 44,41.9751 61,44.4334 61,36.5 61,36.4334 61,28.5 44,30.9583 44,36.4329"
       stroke-miterlimit="10" />
  </g>
</svg>
