<?xml version="1.0" encoding="UTF-8" standalone="no"?>
<svg
   xmlns:dc="http://purl.org/dc/elements/1.1/"
   xmlns:cc="http://creativecommons.org/ns#"
   xmlns:rdf="http://www.w3.org/1999/02/22-rdf-syntax-ns#"
   xmlns:svg="http://www.w3.org/2000/svg"
   xmlns="http://www.w3.org/2000/svg"
   height="200"
   width="200"
   xml:space="preserve"
   viewBox="0 0 200 200.00001"
   y="0px"
   x="0px"
   id="Layer_1"
   version="1.1"><metadata
   id="metadata86"><rdf:RDF><cc:Work
       rdf:about=""><dc:format>image/svg+xml</dc:format><dc:type
         rdf:resource="http://purl.org/dc/dcmitype/StillImage" /><dc:title></dc:title></cc:Work></rdf:RDF></metadata><defs
   id="defs84" />
<style
   id="style68"
   type="text/css">
	.st0{fill:#0061FF;}
	.st1{display:none;}
	.st2{display:inline;}
	.st3{fill:none;}
</style>


<g
   transform="translate(0,3.1000122)"
   style="display:none"
   class="st1"
   id="Editble">
	<g
   style="display:inline"
   id="g78"
   class="st2">
		<rect
   style="fill:none"
   id="rect74"
   height="71.800003"
   width="506"
   class="st3"
   y="71.599998"
   x="233" />
		<path
   id="path76"
   d="m 338.2,80.2 h 16.3 c 10.4,0 19,6.1 19,19.8 v 2.9 c 0,13.8 -8,20 -18.7,20 h -16.6 z m 9.2,7.7 v 27.2 h 7 c 5.9,0 9.9,-3.9 9.9,-12.5 v -2.2 c 0,-8.6 -4.1,-12.5 -10.2,-12.5 z m 31,0.5 h 7.3 l 1.1,8 c 1.4,-5.5 4.9,-8.3 11.3,-8.3 h 2.2 v 9.2 h -3.7 c -7.4,0 -9.2,2.6 -9.2,9.9 V 123 h -9 c 0,0 0,-34.6 0,-34.6 z m 23.9,18 v -1 c 0,-11.6 7.4,-17.9 17.5,-17.9 10.3,0 17.5,6.4 17.5,17.9 v 1 c 0,11.4 -7,17.5 -17.5,17.5 -11.2,0 -17.5,-6.1 -17.5,-17.5 z m 25.8,-0.1 v -0.8 c 0,-6.5 -3.2,-10.3 -8.3,-10.3 -5,0 -8.4,3.5 -8.4,10.3 v 0.8 c 0,6.2 3.2,9.7 8.3,9.7 5.2,0 8.4,-3.4 8.4,-9.7 z M 442,88.4 h 7.6 l 0.9,6.6 c 1.9,-4.4 5.7,-7.4 11.4,-7.4 8.8,0 14.6,6.4 14.6,18 v 1 c 0,11.4 -6.4,17.3 -14.6,17.3 -5.5,0 -9.2,-2.5 -11,-6.5 v 17.5 H 442 Z m 25.3,18 v -0.8 c 0,-6.9 -3.5,-10.3 -8.3,-10.3 -5,0 -8.4,3.8 -8.4,10.3 v 0.7 c 0,6.1 3.2,10 8.2,10 5.2,-0.2 8.5,-3.6 8.5,-9.9 z m 22.4,10.3 -0.7,6.3 h -7.8 V 76.8 h 8.8 v 17.8 c 1.9,-4.5 5.8,-7 11.2,-7 8.2,0.1 14.3,5.8 14.3,17.3 v 1 c 0,11.5 -5.8,18 -14.6,18 -5.6,0 -9.4,-2.8 -11.2,-7.2 z m 16.8,-10.8 v -0.8 c 0,-6.4 -3.5,-9.8 -8.3,-9.8 -5,0 -8.4,4 -8.4,10 v 0.7 c 0,6.5 3.3,10.2 8.3,10.2 5.2,-0.1 8.4,-3.5 8.4,-10.3 z m 13.1,0.5 v -1 c 0,-11.6 7.4,-17.9 17.5,-17.9 10.3,0 17.5,6.4 17.5,17.9 v 1 c 0,11.4 -7.1,17.5 -17.5,17.5 -11.2,0 -17.5,-6.1 -17.5,-17.5 z m 25.8,-0.1 v -0.8 c 0,-6.5 -3.2,-10.3 -8.3,-10.3 -5,0 -8.4,3.5 -8.4,10.3 v 0.8 c 0,6.2 3.2,9.7 8.3,9.7 5.2,0 8.4,-3.4 8.4,-9.7 z M 566.3,105 554.2,88.3 h 10.4 l 7,10.4 7.1,-10.4 H 589 l -12.3,16.6 13,18 h -10.2 l -8,-11.5 -7.7,11.5 h -10.6 z" />
	</g>
</g>
<path
   style="fill:#0061ff;stroke-width:0.82002592"
   id="path70"
   d="M 100.12301,53.877853 52.561502,84.218811 100.12301,114.55978 52.561502,144.90074 5,114.39577 52.561502,84.054806 5,53.877853 52.561502,23.536895 Z M 52.315494,154.65904 99.876996,124.31809 147.4385,154.65904 99.876996,185 Z M 100.12301,114.39577 147.68451,84.054806 100.12301,53.877853 147.4385,23.536895 195,53.877853 147.4385,84.218811 195,114.55978 147.4385,144.90074 Z"
   class="st0" /></svg>